<mxfile host="Electron" modified="2024-06-05T17:26:37.750Z" agent="Mozilla/5.0 (Windows NT 10.0; Win64; x64) AppleWebKit/537.36 (KHTML, like Gecko) draw.io/24.4.0 Chrome/120.0.6099.109 Electron/28.1.0 Safari/537.36" etag="gjeKMnQzmOGw7idH87oL" version="24.4.0" type="device">
  <diagram name="Page-1" id="CDpg6JYqgY3mZ52PGEcK">
    <mxGraphModel dx="1036" dy="702" grid="1" gridSize="10" guides="1" tooltips="1" connect="1" arrows="1" fold="1" page="1" pageScale="1" pageWidth="850" pageHeight="1100" math="0" shadow="0">
      <root>
        <mxCell id="0" />
        <mxCell id="1" parent="0" />
        <mxCell id="mf5hzjcvuxjUDYW8u6ig-1" value="User Input" style="whiteSpace=wrap;strokeWidth=2;" vertex="1" parent="1">
          <mxGeometry x="53" y="20" width="89" height="33" as="geometry" />
        </mxCell>
        <mxCell id="mf5hzjcvuxjUDYW8u6ig-2" value="Rule Retrieval" style="whiteSpace=wrap;strokeWidth=2;" vertex="1" parent="1">
          <mxGeometry x="40" y="103" width="115" height="33" as="geometry" />
        </mxCell>
        <mxCell id="mf5hzjcvuxjUDYW8u6ig-3" value="Differentiation" style="whiteSpace=wrap;strokeWidth=2;" vertex="1" parent="1">
          <mxGeometry x="37" y="187" width="121" height="33" as="geometry" />
        </mxCell>
        <mxCell id="mf5hzjcvuxjUDYW8u6ig-4" value="Display Information" style="whiteSpace=wrap;strokeWidth=2;" vertex="1" parent="1">
          <mxGeometry x="20" y="270" width="154" height="33" as="geometry" />
        </mxCell>
        <mxCell id="mf5hzjcvuxjUDYW8u6ig-5" value="Web Page" style="whiteSpace=wrap;strokeWidth=2;" vertex="1" parent="1">
          <mxGeometry x="55" y="354" width="85" height="33" as="geometry" />
        </mxCell>
        <mxCell id="mf5hzjcvuxjUDYW8u6ig-6" value="" style="curved=1;startArrow=none;endArrow=block;exitX=0.49683988764044945;exitY=1.0121212583599668;entryX=0.49755434782608693;entryY=0.012121258359966856;rounded=0;" edge="1" parent="1" source="mf5hzjcvuxjUDYW8u6ig-1" target="mf5hzjcvuxjUDYW8u6ig-2">
          <mxGeometry relative="1" as="geometry">
            <Array as="points" />
          </mxGeometry>
        </mxCell>
        <mxCell id="mf5hzjcvuxjUDYW8u6ig-7" value="" style="curved=1;startArrow=none;endArrow=block;exitX=0.49755434782608693;exitY=1.0242425167199336;entryX=0.49767561983471076;entryY=-0.006060513583096591;rounded=0;" edge="1" parent="1" source="mf5hzjcvuxjUDYW8u6ig-2" target="mf5hzjcvuxjUDYW8u6ig-3">
          <mxGeometry relative="1" as="geometry">
            <Array as="points" />
          </mxGeometry>
        </mxCell>
        <mxCell id="mf5hzjcvuxjUDYW8u6ig-8" value="" style="curved=1;startArrow=none;endArrow=block;exitX=0.49767561983471076;exitY=1.0060607447768704;entryX=0.5014204545454546;entryY=0.006060744776870265;rounded=0;" edge="1" parent="1" source="mf5hzjcvuxjUDYW8u6ig-3" target="mf5hzjcvuxjUDYW8u6ig-4">
          <mxGeometry relative="1" as="geometry">
            <Array as="points" />
          </mxGeometry>
        </mxCell>
        <mxCell id="mf5hzjcvuxjUDYW8u6ig-9" value="" style="curved=1;startArrow=none;endArrow=block;exitX=0.5014204545454546;exitY=1.0181820031368372;entryX=0.49669117647058825;entryY=-0.012121027166193182;rounded=0;" edge="1" parent="1" source="mf5hzjcvuxjUDYW8u6ig-4" target="mf5hzjcvuxjUDYW8u6ig-5">
          <mxGeometry relative="1" as="geometry">
            <Array as="points" />
          </mxGeometry>
        </mxCell>
      </root>
    </mxGraphModel>
  </diagram>
</mxfile>
